<svg viewBox="245 48 405 510" preserveAspectRatio="none" xmlns="http://www.w3.org/2000/svg">
  <g transform="translate(477.8364082930641 274.647443753767)">
    <path fill="white" d="M89.7 -170C112.1 -142.5 123.2 -110 129.2 -80.8C135.2 -51.7 136.1 -25.8 143.9 4.5C151.7 34.8 166.3 69.7 165.2 107.3C164.2 145 147.3 185.5 117.2 218.1C87 250.7 43.5 275.3 2.3 271.3C-38.8 267.3 -77.7 234.5 -116.9 207.2C-156.2 179.9 -195.9 157.9 -212.1 124.3C-228.4 90.7 -221.2 45.3 -198.2 13.3C-175.1 -18.8 -136.3 -37.5 -117.9 -67.4C-99.5 -97.3 -101.5 -138.3 -85.2 -169.4C-69 -200.5 -34.5 -221.8 -0.4 -221C33.7 -220.3 67.3 -197.6 89.7 -170" />
  </g>
</svg>
